STARTFONT 2.1
FONT -sun-arioso-medium-r-normal--8-80-75-75-p-41-adobe-fontspecific
SIZE 8 75 75
FONTBOUNDINGBOX 10 10 -1 -2

STARTPROPERTIES 28
FOUNDRY "sun"
FAMILY_NAME "arioso"
WEIGHT_NAME "medium"
SLANT "r"
SETWIDTH_NAME "normal"
ADD_STYLE_NAME ""
PIXEL_SIZE 8
POINT_SIZE 80
RESOLUTION_X 75
RESOLUTION_Y 75
SPACING "p"
AVERAGE_WIDTH 41
CHARSET_REGISTRY "adobe"
CHARSET_ENCODING "fontspecific"
COPYRIGHT "© 1999 Sun Microsystems, Inc."
RAW_PIXELSIZE 1000
RAW_POINTSIZE 964
RAW_ASCENT 897
RAW_DESCENT 198
RAW_AVERAGE_WIDTH 4987
FACE_NAME "AriosoNormal"
_XMBDFED_INFO "Edited with xmbdfed 2.4."
WEIGHT 10
X_HEIGHT 0
QUAD_WIDTH 4
DEFAULT_CHAR 4
FONT_DESCENT 2
FONT_ASCENT 8
ENDPROPERTIES

CHARS 195

STARTCHAR char32
ENCODING 32
SWIDTH 21 0
DWIDTH 2 0
BBX 0 0 0 0
BITMAP
ENDCHAR

STARTCHAR char33
ENCODING 33
SWIDTH 32 0
DWIDTH 3 0
BBX 3 5 0 0
BITMAP
20
40
40
40
80
ENDCHAR

STARTCHAR char34
ENCODING 34
SWIDTH 32 0
DWIDTH 3 0
BBX 2 2 1 4
BITMAP
C0
C0
ENDCHAR

STARTCHAR char35
ENCODING 35
SWIDTH 53 0
DWIDTH 5 0
BBX 4 6 0 0
BITMAP
30
F0
50
50
F0
50
ENDCHAR

STARTCHAR char36
ENCODING 36
SWIDTH 43 0
DWIDTH 4 0
BBX 5 7 0 -1
BITMAP
78
50
60
30
30
F0
40
ENDCHAR

STARTCHAR char37
ENCODING 37
SWIDTH 64 0
DWIDTH 6 0
BBX 6 5 0 0
BITMAP
70
B4
FC
74
38
ENDCHAR

STARTCHAR char38
ENCODING 38
SWIDTH 43 0
DWIDTH 4 0
BBX 4 5 0 0
BITMAP
20
60
70
A0
D0
ENDCHAR

STARTCHAR char39
ENCODING 39
SWIDTH 21 0
DWIDTH 2 0
BBX 1 2 1 4
BITMAP
80
80
ENDCHAR

STARTCHAR char40
ENCODING 40
SWIDTH 32 0
DWIDTH 3 0
BBX 2 7 1 -1
BITMAP
40
40
80
80
80
80
80
ENDCHAR

STARTCHAR char41
ENCODING 41
SWIDTH 32 0
DWIDTH 3 0
BBX 4 7 -1 -1
BITMAP
10
10
10
20
20
40
40
ENDCHAR

STARTCHAR char42
ENCODING 42
SWIDTH 32 0
DWIDTH 3 0
BBX 3 3 1 3
BITMAP
C0
E0
40
ENDCHAR

STARTCHAR char43
ENCODING 43
SWIDTH 53 0
DWIDTH 5 0
BBX 4 5 1 0
BITMAP
40
40
F0
40
40
ENDCHAR

STARTCHAR char44
ENCODING 44
SWIDTH 21 0
DWIDTH 2 0
BBX 1 2 0 -1
BITMAP
80
80
ENDCHAR

STARTCHAR char45
ENCODING 45
SWIDTH 32 0
DWIDTH 3 0
BBX 2 1 0 1
BITMAP
40
ENDCHAR

STARTCHAR char46
ENCODING 46
SWIDTH 21 0
DWIDTH 2 0
BBX 1 1 0 0
BITMAP
80
ENDCHAR

STARTCHAR char47
ENCODING 47
SWIDTH 43 0
DWIDTH 4 0
BBX 4 6 0 0
BITMAP
10
20
20
40
80
80
ENDCHAR

STARTCHAR char48
ENCODING 48
SWIDTH 43 0
DWIDTH 4 0
BBX 4 5 0 0
BITMAP
70
50
90
A0
E0
ENDCHAR

STARTCHAR char49
ENCODING 49
SWIDTH 43 0
DWIDTH 4 0
BBX 2 5 1 0
BITMAP
40
C0
40
40
80
ENDCHAR

STARTCHAR char50
ENCODING 50
SWIDTH 43 0
DWIDTH 4 0
BBX 4 5 0 0
BITMAP
70
50
20
C0
F0
ENDCHAR

STARTCHAR char51
ENCODING 51
SWIDTH 43 0
DWIDTH 4 0
BBX 4 5 0 0
BITMAP
30
10
20
20
E0
ENDCHAR

STARTCHAR char52
ENCODING 52
SWIDTH 43 0
DWIDTH 4 0
BBX 4 5 0 0
BITMAP
10
60
60
F0
20
ENDCHAR

STARTCHAR char53
ENCODING 53
SWIDTH 43 0
DWIDTH 4 0
BBX 3 5 1 0
BITMAP
E0
80
60
20
C0
ENDCHAR

STARTCHAR char54
ENCODING 54
SWIDTH 43 0
DWIDTH 4 0
BBX 4 5 0 0
BITMAP
20
40
70
90
E0
ENDCHAR

STARTCHAR char55
ENCODING 55
SWIDTH 43 0
DWIDTH 4 0
BBX 4 5 0 0
BITMAP
70
10
20
40
40
ENDCHAR

STARTCHAR char56
ENCODING 56
SWIDTH 43 0
DWIDTH 4 0
BBX 4 5 0 0
BITMAP
70
50
20
E0
E0
ENDCHAR

STARTCHAR char57
ENCODING 57
SWIDTH 43 0
DWIDTH 4 0
BBX 4 5 0 0
BITMAP
70
90
D0
60
40
ENDCHAR

STARTCHAR char58
ENCODING 58
SWIDTH 21 0
DWIDTH 2 0
BBX 2 3 0 0
BITMAP
40
00
80
ENDCHAR

STARTCHAR char59
ENCODING 59
SWIDTH 21 0
DWIDTH 2 0
BBX 2 4 0 -1
BITMAP
40
00
40
40
ENDCHAR

STARTCHAR char60
ENCODING 60
SWIDTH 53 0
DWIDTH 5 0
BBX 5 4 0 0
BITMAP
30
40
60
18
ENDCHAR

STARTCHAR char61
ENCODING 61
SWIDTH 53 0
DWIDTH 5 0
BBX 6 2 0 1
BITMAP
FC
FC
ENDCHAR

STARTCHAR char62
ENCODING 62
SWIDTH 53 0
DWIDTH 5 0
BBX 5 4 0 0
BITMAP
60
10
30
C0
ENDCHAR

STARTCHAR char63
ENCODING 63
SWIDTH 32 0
DWIDTH 3 0
BBX 4 6 0 0
BITMAP
20
50
20
40
C0
80
ENDCHAR

STARTCHAR char64
ENCODING 64
SWIDTH 86 0
DWIDTH 8 0
BBX 6 6 1 0
BITMAP
38
FC
CC
CC
FC
38
ENDCHAR

STARTCHAR char65
ENCODING 65
SWIDTH 86 0
DWIDTH 8 0
BBX 9 6 -1 0
BITMAP
0100
0300
0300
7E80
4A00
F380
ENDCHAR

STARTCHAR char66
ENCODING 66
SWIDTH 75 0
DWIDTH 7 0
BBX 7 6 -1 0
BITMAP
1C
6A
8A
8A
12
1C
ENDCHAR

STARTCHAR char67
ENCODING 67
SWIDTH 53 0
DWIDTH 5 0
BBX 5 6 0 0
BITMAP
30
48
C8
D0
E0
F8
ENDCHAR

STARTCHAR char68
ENCODING 68
SWIDTH 75 0
DWIDTH 7 0
BBX 8 6 -1 0
BITMAP
3E
65
49
89
1E
1C
ENDCHAR

STARTCHAR char69
ENCODING 69
SWIDTH 53 0
DWIDTH 5 0
BBX 5 6 0 0
BITMAP
18
28
40
40
88
F0
ENDCHAR

STARTCHAR char70
ENCODING 70
SWIDTH 75 0
DWIDTH 7 0
BBX 9 8 -1 -2
BITMAP
3F80
6200
4200
8F00
8C00
8C00
1400
1800
ENDCHAR

STARTCHAR char71
ENCODING 71
SWIDTH 75 0
DWIDTH 7 0
BBX 8 8 0 -2
BITMAP
3E
22
4E
74
44
6F
18
10
ENDCHAR

STARTCHAR char72
ENCODING 72
SWIDTH 86 0
DWIDTH 8 0
BBX 7 6 0 0
BITMAP
72
94
18
72
72
DC
ENDCHAR

STARTCHAR char73
ENCODING 73
SWIDTH 53 0
DWIDTH 5 0
BBX 6 6 -1 0
BITMAP
3C
44
04
08
78
78
ENDCHAR

STARTCHAR char74
ENCODING 74
SWIDTH 53 0
DWIDTH 5 0
BBX 7 8 -1 -2
BITMAP
3E
24
44
88
88
30
70
60
ENDCHAR

STARTCHAR char75
ENCODING 75
SWIDTH 75 0
DWIDTH 7 0
BBX 7 6 0 0
BITMAP
7A
0C
0C
08
18
E6
ENDCHAR

STARTCHAR char76
ENCODING 76
SWIDTH 64 0
DWIDTH 6 0
BBX 7 6 0 0
BITMAP
0C
14
14
14
10
FE
ENDCHAR

STARTCHAR char77
ENCODING 77
SWIDTH 96 0
DWIDTH 9 0
BBX 9 6 0 0
BITMAP
0780
0A80
0F00
1700
2600
CB80
ENDCHAR

STARTCHAR char78
ENCODING 78
SWIDTH 86 0
DWIDTH 8 0
BBX 9 6 -1 0
BITMAP
1800
6700
4A00
9A00
9A00
3380
ENDCHAR

STARTCHAR char79
ENCODING 79
SWIDTH 53 0
DWIDTH 5 0
BBX 5 6 0 0
BITMAP
70
68
88
88
90
60
ENDCHAR

STARTCHAR char80
ENCODING 80
SWIDTH 86 0
DWIDTH 8 0
BBX 8 8 -1 -2
BITMAP
1E
65
49
89
92
1C
10
10
ENDCHAR

STARTCHAR char81
ENCODING 81
SWIDTH 53 0
DWIDTH 5 0
BBX 5 7 0 -1
BITMAP
30
C8
88
90
A0
E0
18
ENDCHAR

STARTCHAR char82
ENCODING 82
SWIDTH 75 0
DWIDTH 7 0
BBX 8 6 -1 0
BITMAP
3E
69
4B
8E
90
1F
ENDCHAR

STARTCHAR char83
ENCODING 83
SWIDTH 53 0
DWIDTH 5 0
BBX 5 6 0 0
BITMAP
38
38
20
70
90
F0
ENDCHAR

STARTCHAR char84
ENCODING 84
SWIDTH 64 0
DWIDTH 6 0
BBX 8 7 -1 -1
BITMAP
7F
42
82
44
74
48
30
ENDCHAR

STARTCHAR char85
ENCODING 85
SWIDTH 75 0
DWIDTH 7 0
BBX 8 6 -1 0
BITMAP
1D
67
4B
8E
9C
1F
ENDCHAR

STARTCHAR char86
ENCODING 86
SWIDTH 75 0
DWIDTH 7 0
BBX 8 6 -1 0
BITMAP
3D
49
89
91
52
1C
ENDCHAR

STARTCHAR char87
ENCODING 87
SWIDTH 96 0
DWIDTH 9 0
BBX 8 6 0 0
BITMAP
75
9D
19
39
2A
2E
ENDCHAR

STARTCHAR char88
ENCODING 88
SWIDTH 86 0
DWIDTH 8 0
BBX 9 6 -1 0
BITMAP
1F80
6600
8400
9C80
1900
6F00
ENDCHAR

STARTCHAR char89
ENCODING 89
SWIDTH 75 0
DWIDTH 7 0
BBX 9 8 -1 -2
BITMAP
1980
6A00
8A00
9600
9C00
1C00
1800
1800
ENDCHAR

STARTCHAR char90
ENCODING 90
SWIDTH 75 0
DWIDTH 7 0
BBX 8 6 0 0
BITMAP
3E
54
54
AC
B0
FF
ENDCHAR

STARTCHAR char91
ENCODING 91
SWIDTH 32 0
DWIDTH 3 0
BBX 3 8 0 -2
BITMAP
20
20
40
40
40
80
80
80
ENDCHAR

STARTCHAR char92
ENCODING 92
SWIDTH 21 0
DWIDTH 2 0
BBX 2 6 0 0
BITMAP
80
80
40
40
40
40
ENDCHAR

STARTCHAR char93
ENCODING 93
SWIDTH 32 0
DWIDTH 3 0
BBX 4 8 -1 -2
BITMAP
10
10
10
20
20
40
40
40
ENDCHAR

STARTCHAR char94
ENCODING 94
SWIDTH 0 0
DWIDTH 0 0
BBX 3 2 0 6
BITMAP
40
60
ENDCHAR

STARTCHAR char95
ENCODING 95
SWIDTH 53 0
DWIDTH 5 0
BBX 5 1 0 -1
BITMAP
F8
ENDCHAR

STARTCHAR char96
ENCODING 96
SWIDTH 0 0
DWIDTH 0 0
BBX 2 1 -1 4
BITMAP
40
ENDCHAR

STARTCHAR char97
ENCODING 97
SWIDTH 43 0
DWIDTH 4 0
BBX 5 3 0 0
BITMAP
60
A0
F8
ENDCHAR

STARTCHAR char98
ENCODING 98
SWIDTH 43 0
DWIDTH 4 0
BBX 4 6 0 0
BITMAP
20
40
60
E0
E0
D0
ENDCHAR

STARTCHAR char99
ENCODING 99
SWIDTH 32 0
DWIDTH 3 0
BBX 3 3 0 0
BITMAP
60
C0
E0
ENDCHAR

STARTCHAR char100
ENCODING 100
SWIDTH 43 0
DWIDTH 4 0
BBX 4 6 0 0
BITMAP
10
10
20
E0
A0
C0
ENDCHAR

STARTCHAR char101
ENCODING 101
SWIDTH 32 0
DWIDTH 3 0
BBX 3 3 0 0
BITMAP
C0
C0
E0
ENDCHAR

STARTCHAR char102
ENCODING 102
SWIDTH 32 0
DWIDTH 3 0
BBX 4 8 -1 -2
BITMAP
10
10
30
30
E0
F0
C0
40
ENDCHAR

STARTCHAR char103
ENCODING 103
SWIDTH 43 0
DWIDTH 4 0
BBX 5 5 0 -2
BITMAP
70
A0
F8
C0
C0
ENDCHAR

STARTCHAR char104
ENCODING 104
SWIDTH 43 0
DWIDTH 4 0
BBX 4 6 0 0
BITMAP
40
40
40
E0
A0
F0
ENDCHAR

STARTCHAR char105
ENCODING 105
SWIDTH 21 0
DWIDTH 2 0
BBX 2 5 0 0
BITMAP
40
00
80
80
C0
ENDCHAR

STARTCHAR char106
ENCODING 106
SWIDTH 32 0
DWIDTH 3 0
BBX 4 7 -1 -2
BITMAP
10
00
60
40
C0
C0
40
ENDCHAR

STARTCHAR char107
ENCODING 107
SWIDTH 43 0
DWIDTH 4 0
BBX 5 6 0 0
BITMAP
40
40
40
E0
C0
F8
ENDCHAR

STARTCHAR char108
ENCODING 108
SWIDTH 21 0
DWIDTH 2 0
BBX 2 6 0 0
BITMAP
40
40
40
40
80
C0
ENDCHAR

STARTCHAR char109
ENCODING 109
SWIDTH 64 0
DWIDTH 6 0
BBX 5 3 0 0
BITMAP
E8
F0
B8
ENDCHAR

STARTCHAR char110
ENCODING 110
SWIDTH 43 0
DWIDTH 4 0
BBX 5 3 0 0
BITMAP
E0
A0
F8
ENDCHAR

STARTCHAR char111
ENCODING 111
SWIDTH 43 0
DWIDTH 4 0
BBX 4 4 0 0
BITMAP
20
E0
B0
C0
ENDCHAR

STARTCHAR char112
ENCODING 112
SWIDTH 43 0
DWIDTH 4 0
BBX 5 6 -1 -2
BITMAP
10
68
B0
F0
40
80
ENDCHAR

STARTCHAR char113
ENCODING 113
SWIDTH 43 0
DWIDTH 4 0
BBX 4 5 0 -2
BITMAP
70
A0
B0
60
40
ENDCHAR

STARTCHAR char114
ENCODING 114
SWIDTH 32 0
DWIDTH 3 0
BBX 3 3 0 0
BITMAP
C0
E0
A0
ENDCHAR

STARTCHAR char115
ENCODING 115
SWIDTH 32 0
DWIDTH 3 0
BBX 3 3 0 0
BITMAP
60
C0
E0
ENDCHAR

STARTCHAR char116
ENCODING 116
SWIDTH 21 0
DWIDTH 2 0
BBX 3 5 0 0
BITMAP
40
40
A0
80
C0
ENDCHAR

STARTCHAR char117
ENCODING 117
SWIDTH 43 0
DWIDTH 4 0
BBX 4 3 0 0
BITMAP
60
60
F0
ENDCHAR

STARTCHAR char118
ENCODING 118
SWIDTH 43 0
DWIDTH 4 0
BBX 4 3 0 0
BITMAP
E0
A0
F0
ENDCHAR

STARTCHAR char119
ENCODING 119
SWIDTH 53 0
DWIDTH 5 0
BBX 7 4 -1 0
BITMAP
0C
5C
A8
F6
ENDCHAR

STARTCHAR char120
ENCODING 120
SWIDTH 43 0
DWIDTH 4 0
BBX 5 3 -1 0
BITMAP
F8
60
D8
ENDCHAR

STARTCHAR char121
ENCODING 121
SWIDTH 43 0
DWIDTH 4 0
BBX 4 5 0 -2
BITMAP
A0
A0
F0
40
80
ENDCHAR

STARTCHAR char122
ENCODING 122
SWIDTH 32 0
DWIDTH 3 0
BBX 4 3 0 0
BITMAP
F0
80
E0
ENDCHAR

STARTCHAR char123
ENCODING 123
SWIDTH 32 0
DWIDTH 3 0
BBX 2 8 0 -2
BITMAP
40
40
40
80
40
40
40
40
ENDCHAR

STARTCHAR char124
ENCODING 124
SWIDTH 21 0
DWIDTH 2 0
BBX 1 6 1 0
BITMAP
80
80
80
80
80
80
ENDCHAR

STARTCHAR char125
ENCODING 125
SWIDTH 32 0
DWIDTH 3 0
BBX 2 8 0 -2
BITMAP
C0
40
40
40
40
40
40
C0
ENDCHAR

STARTCHAR char126
ENCODING 126
SWIDTH 0 0
DWIDTH 0 0
BBX 3 1 0 6
BITMAP
C0
ENDCHAR

STARTCHAR char128
ENCODING 128
SWIDTH 53 0
DWIDTH 5 0
BBX 6 6 -1 0
BITMAP
1C
70
70
50
40
7C
ENDCHAR

STARTCHAR char130
ENCODING 130
SWIDTH 21 0
DWIDTH 2 0
BBX 1 2 0 -1
BITMAP
80
80
ENDCHAR

STARTCHAR char131
ENCODING 131
SWIDTH 0 0
DWIDTH 0 0
BBX 3 2 0 6
BITMAP
40
60
ENDCHAR

STARTCHAR char132
ENCODING 132
SWIDTH 32 0
DWIDTH 3 0
BBX 3 2 0 -1
BITMAP
A0
A0
ENDCHAR

STARTCHAR char133
ENCODING 133
SWIDTH 86 0
DWIDTH 8 0
BBX 7 1 1 0
BITMAP
92
ENDCHAR

STARTCHAR char134
ENCODING 134
SWIDTH 32 0
DWIDTH 3 0
BBX 4 7 0 -1
BITMAP
20
20
E0
40
40
80
80
ENDCHAR

STARTCHAR char136
ENCODING 136
SWIDTH 0 0
DWIDTH 0 0
BBX 2 1 -1 4
BITMAP
40
ENDCHAR

STARTCHAR char139
ENCODING 139
SWIDTH 32 0
DWIDTH 3 0
BBX 1 3 1 1
BITMAP
80
80
80
ENDCHAR

STARTCHAR char140
ENCODING 140
SWIDTH 86 0
DWIDTH 8 0
BBX 9 6 -1 0
BITMAP
3980
3580
4700
8400
8880
F780
ENDCHAR

STARTCHAR char145
ENCODING 145
SWIDTH 21 0
DWIDTH 2 0
BBX 1 2 1 4
BITMAP
80
80
ENDCHAR

STARTCHAR char146
ENCODING 146
SWIDTH 21 0
DWIDTH 2 0
BBX 1 2 1 4
BITMAP
80
80
ENDCHAR

STARTCHAR char147
ENCODING 147
SWIDTH 32 0
DWIDTH 3 0
BBX 2 2 1 4
BITMAP
C0
C0
ENDCHAR

STARTCHAR char148
ENCODING 148
SWIDTH 32 0
DWIDTH 3 0
BBX 2 2 1 4
BITMAP
C0
C0
ENDCHAR

STARTCHAR char149
ENCODING 149
SWIDTH 32 0
DWIDTH 3 0
BBX 2 2 0 2
BITMAP
C0
C0
ENDCHAR

STARTCHAR char150
ENCODING 150
SWIDTH 43 0
DWIDTH 4 0
BBX 4 1 0 1
BITMAP
70
ENDCHAR

STARTCHAR char151
ENCODING 151
SWIDTH 53 0
DWIDTH 5 0
BBX 6 1 0 2
BITMAP
FC
ENDCHAR

STARTCHAR char152
ENCODING 152
SWIDTH 0 0
DWIDTH 0 0
BBX 3 1 -1 4
BITMAP
C0
ENDCHAR

STARTCHAR char153
ENCODING 153
SWIDTH 75 0
DWIDTH 7 0
BBX 6 4 0 2
BITMAP
F4
FC
5C
5C
ENDCHAR

STARTCHAR char155
ENCODING 155
SWIDTH 32 0
DWIDTH 3 0
BBX 1 3 1 1
BITMAP
80
80
80
ENDCHAR

STARTCHAR char156
ENCODING 156
SWIDTH 53 0
DWIDTH 5 0
BBX 5 3 0 0
BITMAP
78
B0
F8
ENDCHAR

STARTCHAR char159
ENCODING 159
SWIDTH 75 0
DWIDTH 7 0
BBX 9 9 -1 -2
BITMAP
0A00
1980
6A00
8A00
9600
9A00
1E00
1800
1800
ENDCHAR

STARTCHAR char160
ENCODING 160
SWIDTH 21 0
DWIDTH 2 0
BBX 0 0 0 0
BITMAP
ENDCHAR

STARTCHAR char161
ENCODING 161
SWIDTH 32 0
DWIDTH 3 0
BBX 2 5 0 0
BITMAP
40
40
40
80
80
ENDCHAR

STARTCHAR char162
ENCODING 162
SWIDTH 32 0
DWIDTH 3 0
BBX 3 5 0 -1
BITMAP
20
E0
C0
E0
40
ENDCHAR

STARTCHAR char163
ENCODING 163
SWIDTH 53 0
DWIDTH 5 0
BBX 6 6 0 0
BITMAP
18
24
20
70
20
E0
ENDCHAR

STARTCHAR char164
ENCODING 164
SWIDTH 0 0
DWIDTH 0 0
BBX 1 1 1 6
BITMAP
80
ENDCHAR

STARTCHAR char165
ENCODING 165
SWIDTH 0 0
DWIDTH 0 0
BBX 1 1 1 6
BITMAP
80
ENDCHAR

STARTCHAR char167
ENCODING 167
SWIDTH 43 0
DWIDTH 4 0
BBX 4 8 0 -2
BITMAP
30
40
A0
A0
A0
40
C0
80
ENDCHAR

STARTCHAR char168
ENCODING 168
SWIDTH 0 0
DWIDTH 0 0
BBX 2 1 -1 4
BITMAP
C0
ENDCHAR

STARTCHAR char169
ENCODING 169
SWIDTH 64 0
DWIDTH 6 0
BBX 6 6 0 0
BITMAP
30
48
FC
C4
EC
78
ENDCHAR

STARTCHAR char170
ENCODING 170
SWIDTH 0 0
DWIDTH 0 0
BBX 2 1 0 6
BITMAP
C0
ENDCHAR

STARTCHAR char171
ENCODING 171
SWIDTH 32 0
DWIDTH 3 0
BBX 3 2 0 1
BITMAP
C0
C0
ENDCHAR

STARTCHAR char172
ENCODING 172
SWIDTH 64 0
DWIDTH 6 0
BBX 5 3 0 0
BITMAP
F8
08
08
ENDCHAR

STARTCHAR char174
ENCODING 174
SWIDTH 64 0
DWIDTH 6 0
BBX 6 6 0 0
BITMAP
30
78
B4
B4
BC
78
ENDCHAR

STARTCHAR char176
ENCODING 176
SWIDTH 21 0
DWIDTH 2 0
BBX 3 4 1 2
BITMAP
40
A0
E0
40
ENDCHAR

STARTCHAR char177
ENCODING 177
SWIDTH 43 0
DWIDTH 4 0
BBX 4 5 0 0
BITMAP
20
20
F0
20
F0
ENDCHAR

STARTCHAR char180
ENCODING 180
SWIDTH 0 0
DWIDTH 0 0
BBX 1 1 0 4
BITMAP
80
ENDCHAR

STARTCHAR char182
ENCODING 182
SWIDTH 64 0
DWIDTH 6 0
BBX 3 7 1 -1
BITMAP
E0
E0
E0
60
60
60
60
ENDCHAR

STARTCHAR char183
ENCODING 183
SWIDTH 10 0
DWIDTH 1 0
BBX 1 1 1 2
BITMAP
80
ENDCHAR

STARTCHAR char184
ENCODING 184
SWIDTH 0 0
DWIDTH 0 0
BBX 1 3 -1 -2
BITMAP
80
80
80
ENDCHAR

STARTCHAR char186
ENCODING 186
SWIDTH 0 0
DWIDTH 0 0
BBX 3 1 0 6
BITMAP
C0
ENDCHAR

STARTCHAR char187
ENCODING 187
SWIDTH 32 0
DWIDTH 3 0
BBX 3 2 0 1
BITMAP
60
60
ENDCHAR

STARTCHAR char191
ENCODING 191
SWIDTH 32 0
DWIDTH 3 0
BBX 3 6 0 0
BITMAP
20
00
20
40
C0
C0
ENDCHAR

STARTCHAR char192
ENCODING 192
SWIDTH 86 0
DWIDTH 8 0
BBX 9 7 -1 0
BITMAP
0200
0300
0300
0300
7E80
4A00
F380
ENDCHAR

STARTCHAR char193
ENCODING 193
SWIDTH 86 0
DWIDTH 8 0
BBX 9 7 -1 0
BITMAP
0400
0300
0300
0300
7E80
4A00
F380
ENDCHAR

STARTCHAR char194
ENCODING 194
SWIDTH 86 0
DWIDTH 8 0
BBX 9 7 -1 0
BITMAP
0600
0300
0300
0300
7E80
4A00
F380
ENDCHAR

STARTCHAR char195
ENCODING 195
SWIDTH 86 0
DWIDTH 8 0
BBX 9 7 -1 0
BITMAP
0E00
0300
0300
0300
7E80
4A00
F380
ENDCHAR

STARTCHAR char196
ENCODING 196
SWIDTH 86 0
DWIDTH 8 0
BBX 9 7 -1 0
BITMAP
0180
0100
0300
0300
7E80
4A00
F380
ENDCHAR

STARTCHAR char197
ENCODING 197
SWIDTH 86 0
DWIDTH 8 0
BBX 9 8 -1 0
BITMAP
0180
0180
0300
0300
0300
7E80
4A00
F380
ENDCHAR

STARTCHAR char198
ENCODING 198
SWIDTH 96 0
DWIDTH 9 0
BBX 10 7 -1 0
BITMAP
0280
0740
0740
0500
3E00
D440
F780
ENDCHAR

STARTCHAR char199
ENCODING 199
SWIDTH 53 0
DWIDTH 5 0
BBX 5 8 0 -2
BITMAP
30
48
C8
D0
E0
F8
40
40
ENDCHAR

STARTCHAR char200
ENCODING 200
SWIDTH 53 0
DWIDTH 5 0
BBX 5 7 0 0
BITMAP
10
18
28
40
40
88
F0
ENDCHAR

STARTCHAR char201
ENCODING 201
SWIDTH 53 0
DWIDTH 5 0
BBX 5 7 0 0
BITMAP
10
18
28
40
40
88
F0
ENDCHAR

STARTCHAR char202
ENCODING 202
SWIDTH 53 0
DWIDTH 5 0
BBX 5 8 0 0
BITMAP
10
18
18
28
40
40
88
F0
ENDCHAR

STARTCHAR char203
ENCODING 203
SWIDTH 53 0
DWIDTH 5 0
BBX 5 7 0 0
BITMAP
28
38
28
40
40
88
F0
ENDCHAR

STARTCHAR char204
ENCODING 204
SWIDTH 53 0
DWIDTH 5 0
BBX 6 7 -1 0
BITMAP
04
3C
44
04
08
78
78
ENDCHAR

STARTCHAR char205
ENCODING 205
SWIDTH 53 0
DWIDTH 5 0
BBX 6 7 -1 0
BITMAP
08
3C
44
04
08
78
78
ENDCHAR

STARTCHAR char206
ENCODING 206
SWIDTH 53 0
DWIDTH 5 0
BBX 6 8 -1 0
BITMAP
08
0C
3C
44
04
08
78
78
ENDCHAR

STARTCHAR char207
ENCODING 207
SWIDTH 53 0
DWIDTH 5 0
BBX 6 7 -1 0
BITMAP
14
3C
44
04
04
78
78
ENDCHAR

STARTCHAR char209
ENCODING 209
SWIDTH 86 0
DWIDTH 8 0
BBX 9 7 -1 0
BITMAP
0600
1900
6700
4A00
9A00
9A00
3380
ENDCHAR

STARTCHAR char210
ENCODING 210
SWIDTH 53 0
DWIDTH 5 0
BBX 5 7 0 0
BITMAP
08
70
68
88
88
90
60
ENDCHAR

STARTCHAR char211
ENCODING 211
SWIDTH 53 0
DWIDTH 5 0
BBX 5 7 0 0
BITMAP
10
70
68
88
88
90
60
ENDCHAR

STARTCHAR char212
ENCODING 212
SWIDTH 53 0
DWIDTH 5 0
BBX 5 8 0 0
BITMAP
10
18
70
68
88
88
90
60
ENDCHAR

STARTCHAR char213
ENCODING 213
SWIDTH 53 0
DWIDTH 5 0
BBX 5 7 0 0
BITMAP
38
70
68
88
88
90
60
ENDCHAR

STARTCHAR char214
ENCODING 214
SWIDTH 53 0
DWIDTH 5 0
BBX 5 7 0 0
BITMAP
30
70
68
88
98
90
60
ENDCHAR

STARTCHAR char216
ENCODING 216
SWIDTH 53 0
DWIDTH 5 0
BBX 5 6 0 0
BITMAP
78
78
B8
E8
D0
E0
ENDCHAR

STARTCHAR char217
ENCODING 217
SWIDTH 75 0
DWIDTH 7 0
BBX 8 7 -1 0
BITMAP
04
1D
67
4B
8E
9C
1F
ENDCHAR

STARTCHAR char218
ENCODING 218
SWIDTH 75 0
DWIDTH 7 0
BBX 8 7 -1 0
BITMAP
04
1D
67
4B
8E
9C
1F
ENDCHAR

STARTCHAR char219
ENCODING 219
SWIDTH 75 0
DWIDTH 7 0
BBX 8 8 -1 0
BITMAP
04
06
1D
67
4B
8E
9C
1F
ENDCHAR

STARTCHAR char220
ENCODING 220
SWIDTH 75 0
DWIDTH 7 0
BBX 8 7 -1 0
BITMAP
05
1D
67
4B
8E
9A
1F
ENDCHAR

STARTCHAR char223
ENCODING 223
SWIDTH 53 0
DWIDTH 5 0
BBX 6 7 -1 -1
BITMAP
18
18
30
28
28
74
40
ENDCHAR

STARTCHAR char224
ENCODING 224
SWIDTH 43 0
DWIDTH 4 0
BBX 5 5 0 0
BITMAP
40
00
E0
A0
F8
ENDCHAR

STARTCHAR char225
ENCODING 225
SWIDTH 43 0
DWIDTH 4 0
BBX 5 5 0 0
BITMAP
20
00
E0
A0
F8
ENDCHAR

STARTCHAR char226
ENCODING 226
SWIDTH 43 0
DWIDTH 4 0
BBX 5 5 0 0
BITMAP
20
00
E0
A0
F8
ENDCHAR

STARTCHAR char227
ENCODING 227
SWIDTH 43 0
DWIDTH 4 0
BBX 5 5 0 0
BITMAP
60
00
E0
A0
F8
ENDCHAR

STARTCHAR char228
ENCODING 228
SWIDTH 43 0
DWIDTH 4 0
BBX 5 5 0 0
BITMAP
70
00
E0
A0
F8
ENDCHAR

STARTCHAR char229
ENCODING 229
SWIDTH 43 0
DWIDTH 4 0
BBX 5 5 0 0
BITMAP
70
60
A0
A0
F8
ENDCHAR

STARTCHAR char230
ENCODING 230
SWIDTH 53 0
DWIDTH 5 0
BBX 5 3 0 0
BITMAP
78
B0
F8
ENDCHAR

STARTCHAR char231
ENCODING 231
SWIDTH 32 0
DWIDTH 3 0
BBX 4 5 0 -2
BITMAP
E0
C0
F0
80
80
ENDCHAR

STARTCHAR char232
ENCODING 232
SWIDTH 32 0
DWIDTH 3 0
BBX 3 5 0 0
BITMAP
40
00
C0
C0
E0
ENDCHAR

STARTCHAR char233
ENCODING 233
SWIDTH 32 0
DWIDTH 3 0
BBX 3 5 0 0
BITMAP
40
00
C0
C0
E0
ENDCHAR

STARTCHAR char234
ENCODING 234
SWIDTH 32 0
DWIDTH 3 0
BBX 3 5 0 0
BITMAP
40
00
C0
C0
E0
ENDCHAR

STARTCHAR char235
ENCODING 235
SWIDTH 32 0
DWIDTH 3 0
BBX 3 5 0 0
BITMAP
A0
00
C0
C0
E0
ENDCHAR

STARTCHAR char236
ENCODING 236
SWIDTH 21 0
DWIDTH 2 0
BBX 2 5 0 0
BITMAP
40
00
80
80
C0
ENDCHAR

STARTCHAR char237
ENCODING 237
SWIDTH 21 0
DWIDTH 2 0
BBX 2 5 0 0
BITMAP
40
00
80
80
C0
ENDCHAR

STARTCHAR char238
ENCODING 238
SWIDTH 21 0
DWIDTH 2 0
BBX 2 5 0 0
BITMAP
40
00
80
80
C0
ENDCHAR

STARTCHAR char239
ENCODING 239
SWIDTH 21 0
DWIDTH 2 0
BBX 2 5 0 0
BITMAP
C0
00
80
80
C0
ENDCHAR

STARTCHAR char241
ENCODING 241
SWIDTH 43 0
DWIDTH 4 0
BBX 5 5 0 0
BITMAP
50
20
E0
A0
F8
ENDCHAR

STARTCHAR char242
ENCODING 242
SWIDTH 43 0
DWIDTH 4 0
BBX 4 5 0 0
BITMAP
40
20
E0
B0
C0
ENDCHAR

STARTCHAR char243
ENCODING 243
SWIDTH 43 0
DWIDTH 4 0
BBX 4 5 0 0
BITMAP
20
20
E0
B0
C0
ENDCHAR

STARTCHAR char244
ENCODING 244
SWIDTH 43 0
DWIDTH 4 0
BBX 4 5 0 0
BITMAP
60
20
E0
B0
C0
ENDCHAR

STARTCHAR char245
ENCODING 245
SWIDTH 43 0
DWIDTH 4 0
BBX 4 5 0 0
BITMAP
70
20
E0
B0
C0
ENDCHAR

STARTCHAR char246
ENCODING 246
SWIDTH 43 0
DWIDTH 4 0
BBX 4 5 0 0
BITMAP
60
20
E0
B0
C0
ENDCHAR

STARTCHAR char247
ENCODING 247
SWIDTH 43 0
DWIDTH 4 0
BBX 4 4 0 0
BITMAP
40
F0
00
40
ENDCHAR

STARTCHAR char248
ENCODING 248
SWIDTH 43 0
DWIDTH 4 0
BBX 4 4 0 0
BITMAP
50
E0
A0
C0
ENDCHAR

STARTCHAR char249
ENCODING 249
SWIDTH 43 0
DWIDTH 4 0
BBX 4 5 0 0
BITMAP
20
00
60
60
F0
ENDCHAR

STARTCHAR char250
ENCODING 250
SWIDTH 43 0
DWIDTH 4 0
BBX 4 5 0 0
BITMAP
20
00
60
60
F0
ENDCHAR

STARTCHAR char251
ENCODING 251
SWIDTH 43 0
DWIDTH 4 0
BBX 4 5 0 0
BITMAP
20
00
60
60
F0
ENDCHAR

STARTCHAR char252
ENCODING 252
SWIDTH 43 0
DWIDTH 4 0
BBX 4 5 0 0
BITMAP
60
00
60
60
F0
ENDCHAR

STARTCHAR char255
ENCODING 255
SWIDTH 43 0
DWIDTH 4 0
BBX 4 7 0 -2
BITMAP
60
00
A0
A0
F0
40
80
ENDCHAR
ENDFONT
